<mxfile host="app.diagrams.net" modified="2020-12-29T21:50:19.480Z" agent="5.0 (X11; Linux x86_64) AppleWebKit/537.36 (KHTML, like Gecko) Chrome/87.0.4280.88 Safari/537.36" etag="UvUh49DvQona9526zRJp" version="13.10.2" type="github">
  <diagram id="PSpXqjL75rR7SkoECmZJ" name="Page-1">
    <mxGraphModel dx="2500" dy="913" grid="1" gridSize="10" guides="1" tooltips="1" connect="1" arrows="1" fold="1" page="1" pageScale="1" pageWidth="827" pageHeight="1169" math="0" shadow="0">
      <root>
        <mxCell id="0" />
        <mxCell id="1" parent="0" />
        <mxCell id="Q7waiSmfwAIm_2oHoKMC-6" value="" style="whiteSpace=wrap;html=1;aspect=fixed;" vertex="1" parent="1">
          <mxGeometry x="-430" y="420" width="80" height="80" as="geometry" />
        </mxCell>
        <mxCell id="Q7waiSmfwAIm_2oHoKMC-7" value="" style="whiteSpace=wrap;html=1;aspect=fixed;" vertex="1" parent="1">
          <mxGeometry x="-280" y="420" width="80" height="80" as="geometry" />
        </mxCell>
        <mxCell id="Q7waiSmfwAIm_2oHoKMC-8" value="" style="whiteSpace=wrap;html=1;aspect=fixed;" vertex="1" parent="1">
          <mxGeometry x="-120" y="430" width="80" height="80" as="geometry" />
        </mxCell>
        <mxCell id="Q7waiSmfwAIm_2oHoKMC-9" value="" style="whiteSpace=wrap;html=1;aspect=fixed;" vertex="1" parent="1">
          <mxGeometry x="-120" y="290" width="80" height="80" as="geometry" />
        </mxCell>
        <mxCell id="Q7waiSmfwAIm_2oHoKMC-10" value="" style="whiteSpace=wrap;html=1;aspect=fixed;" vertex="1" parent="1">
          <mxGeometry x="-120" y="170" width="80" height="80" as="geometry" />
        </mxCell>
        <mxCell id="Q7waiSmfwAIm_2oHoKMC-11" value="" style="whiteSpace=wrap;html=1;aspect=fixed;" vertex="1" parent="1">
          <mxGeometry x="-360" y="170" width="80" height="80" as="geometry" />
        </mxCell>
        <mxCell id="Q7waiSmfwAIm_2oHoKMC-12" value="" style="whiteSpace=wrap;html=1;aspect=fixed;" vertex="1" parent="1">
          <mxGeometry x="-250" y="170" width="80" height="80" as="geometry" />
        </mxCell>
        <mxCell id="Q7waiSmfwAIm_2oHoKMC-13" value="" style="whiteSpace=wrap;html=1;aspect=fixed;" vertex="1" parent="1">
          <mxGeometry x="-280" y="290" width="80" height="80" as="geometry" />
        </mxCell>
        <mxCell id="Q7waiSmfwAIm_2oHoKMC-20" value="" style="ellipse;shape=cloud;whiteSpace=wrap;html=1;" vertex="1" parent="1">
          <mxGeometry x="-620" y="420" width="120" height="80" as="geometry" />
        </mxCell>
        <mxCell id="Q7waiSmfwAIm_2oHoKMC-2" value="" style="whiteSpace=wrap;html=1;aspect=fixed;" vertex="1" parent="1">
          <mxGeometry x="600" y="120" width="80" height="80" as="geometry" />
        </mxCell>
        <mxCell id="Q7waiSmfwAIm_2oHoKMC-3" value="" style="rounded=0;whiteSpace=wrap;html=1;" vertex="1" parent="1">
          <mxGeometry x="340" y="350" width="120" height="60" as="geometry" />
        </mxCell>
        <mxCell id="Q7waiSmfwAIm_2oHoKMC-4" value="" style="rounded=0;whiteSpace=wrap;html=1;" vertex="1" parent="1">
          <mxGeometry x="590" y="360" width="120" height="60" as="geometry" />
        </mxCell>
        <mxCell id="Q7waiSmfwAIm_2oHoKMC-5" value="" style="rounded=0;whiteSpace=wrap;html=1;" vertex="1" parent="1">
          <mxGeometry x="810" y="270" width="120" height="60" as="geometry" />
        </mxCell>
        <mxCell id="Q7waiSmfwAIm_2oHoKMC-14" style="edgeStyle=orthogonalEdgeStyle;rounded=0;orthogonalLoop=1;jettySize=auto;html=1;exitX=0.25;exitY=0;exitDx=0;exitDy=0;entryX=1;entryY=0.75;entryDx=0;entryDy=0;" edge="1" parent="1" source="Q7waiSmfwAIm_2oHoKMC-6" target="Q7waiSmfwAIm_2oHoKMC-9">
          <mxGeometry relative="1" as="geometry" />
        </mxCell>
        <mxCell id="Q7waiSmfwAIm_2oHoKMC-15" style="edgeStyle=orthogonalEdgeStyle;rounded=0;orthogonalLoop=1;jettySize=auto;html=1;exitX=0.5;exitY=0;exitDx=0;exitDy=0;entryX=1;entryY=0.5;entryDx=0;entryDy=0;" edge="1" parent="1" source="Q7waiSmfwAIm_2oHoKMC-6" target="Q7waiSmfwAIm_2oHoKMC-9">
          <mxGeometry relative="1" as="geometry">
            <Array as="points">
              <mxPoint x="-390" y="400" />
              <mxPoint x="-10" y="400" />
              <mxPoint x="-10" y="330" />
            </Array>
          </mxGeometry>
        </mxCell>
        <mxCell id="Q7waiSmfwAIm_2oHoKMC-16" style="edgeStyle=orthogonalEdgeStyle;rounded=0;orthogonalLoop=1;jettySize=auto;html=1;exitX=1;exitY=0.75;exitDx=0;exitDy=0;entryX=0;entryY=0.75;entryDx=0;entryDy=0;" edge="1" parent="1" source="Q7waiSmfwAIm_2oHoKMC-6" target="Q7waiSmfwAIm_2oHoKMC-7">
          <mxGeometry relative="1" as="geometry" />
        </mxCell>
        <mxCell id="Q7waiSmfwAIm_2oHoKMC-17" style="edgeStyle=orthogonalEdgeStyle;rounded=0;orthogonalLoop=1;jettySize=auto;html=1;exitX=0;exitY=0.5;exitDx=0;exitDy=0;entryX=1;entryY=0.25;entryDx=0;entryDy=0;" edge="1" parent="1" source="Q7waiSmfwAIm_2oHoKMC-7" target="Q7waiSmfwAIm_2oHoKMC-9">
          <mxGeometry relative="1" as="geometry">
            <Array as="points">
              <mxPoint x="-300" y="460" />
              <mxPoint x="-300" y="410" />
              <mxPoint y="410" />
              <mxPoint y="310" />
            </Array>
          </mxGeometry>
        </mxCell>
        <mxCell id="Q7waiSmfwAIm_2oHoKMC-19" style="edgeStyle=orthogonalEdgeStyle;rounded=0;orthogonalLoop=1;jettySize=auto;html=1;exitX=1;exitY=0.5;exitDx=0;exitDy=0;entryX=0.75;entryY=0;entryDx=0;entryDy=0;" edge="1" parent="1" source="Q7waiSmfwAIm_2oHoKMC-8" target="Q7waiSmfwAIm_2oHoKMC-9">
          <mxGeometry relative="1" as="geometry">
            <Array as="points">
              <mxPoint x="10" y="470" />
              <mxPoint x="10" y="280" />
              <mxPoint x="-60" y="280" />
            </Array>
          </mxGeometry>
        </mxCell>
        <mxCell id="Q7waiSmfwAIm_2oHoKMC-18" style="edgeStyle=orthogonalEdgeStyle;rounded=0;orthogonalLoop=1;jettySize=auto;html=1;exitX=0.5;exitY=1;exitDx=0;exitDy=0;entryX=0.5;entryY=0;entryDx=0;entryDy=0;" edge="1" parent="1" source="Q7waiSmfwAIm_2oHoKMC-10" target="Q7waiSmfwAIm_2oHoKMC-9">
          <mxGeometry relative="1" as="geometry" />
        </mxCell>
        <mxCell id="Q7waiSmfwAIm_2oHoKMC-22" value="" style="shape=flexArrow;endArrow=classic;startArrow=classic;html=1;exitX=0.875;exitY=0.5;exitDx=0;exitDy=0;exitPerimeter=0;" edge="1" parent="1" source="Q7waiSmfwAIm_2oHoKMC-20">
          <mxGeometry width="50" height="50" relative="1" as="geometry">
            <mxPoint x="220" y="420" as="sourcePoint" />
            <mxPoint x="-430" y="460" as="targetPoint" />
          </mxGeometry>
        </mxCell>
        <mxCell id="Q7waiSmfwAIm_2oHoKMC-1" value="" style="rounded=0;whiteSpace=wrap;html=1;" vertex="1" parent="1">
          <mxGeometry x="-110" y="340" width="40" height="20" as="geometry" />
        </mxCell>
      </root>
    </mxGraphModel>
  </diagram>
</mxfile>
